<?xml version="1.0" encoding="utf-8"?>
<!-- Generator: Adobe Illustrator 26.5.2, SVG Export Plug-In . SVG Version: 6.00 Build 0)  -->
<svg version="1.1" id="Layer_1" xmlns="http://www.w3.org/2000/svg" xmlns:xlink="http://www.w3.org/1999/xlink" x="0px" y="0px"
	 viewBox="0 0 114.9 122.9" style="enable-background:new 0 0 114.9 122.9;" xml:space="preserve">
<style type="text/css">
	.st0{fill:none;}
	.st1{fill:#E53535;}
	.st2{fill:#EFBC9A;}
</style>
<g>
	<path class="st0" d="M57.5,24.3c-6.1,0-11,3.4-11,7.6s4.9,7.6,11,7.6c6,0,11-3.4,11-7.6C68.4,27.7,63.5,24.3,57.5,24.3z"/>
	<path class="st0" d="M47.5,10.2C47,7.7,42.4,6.9,37.3,8.4s-8.7,4.7-8.2,7.1c0.6,2.5,5.1,3.3,10.2,1.8S48.1,12.6,47.5,10.2z"/>
	<path class="st0" d="M33.9,44.2c-4.5-0.8-8.7,1.3-9.2,4.7s2.7,6.8,7.2,7.6s8.7-1.3,9.2-4.7C41.6,48.4,38.4,45,33.9,44.2z"/>
	<path class="st0" d="M17.9,28.9c-2-1.5-5.9,0.8-8.8,5.1s-3.6,9-1.6,10.5s5.9-0.8,8.8-5.1C19.1,35.1,19.8,30.4,17.9,28.9z"/>
	<path class="st0" d="M85.5,15.2c0.6-2.5-3.1-5.6-8.2-7.1s-9.7-0.7-10.2,1.8s3.1,5.6,8.2,7.1S85,17.7,85.5,15.2z"/>
	<path class="st0" d="M98.2,29.6c-1.6,1.2-1,5.1,1.4,8.7s5.6,5.5,7.3,4.2c1.6-1.2,1-5.1-1.4-8.7S99.8,28.4,98.2,29.6z"/>
	<path class="st0" d="M81.3,44.3c-4.5,0.8-7.8,4.2-7.2,7.6s4.7,5.5,9.2,4.7c4.6-0.8,7.8-4.2,7.2-7.6C90,45.5,85.8,43.5,81.3,44.3z"
		/>
	<path class="st1" d="M56.9,1.1C17.3,1.7-1.3,24.8,0.1,42.7c2.6,32.4,115.5,31.4,114.9,0C114.6,24.7,96.5,0.4,56.9,1.1z M16.2,39.4
		c-2.9,4.3-6.8,6.6-8.8,5.1C5.5,43,6.2,38.3,9.1,34s6.8-6.6,8.8-5.1C19.8,30.4,19.1,35.1,16.2,39.4z M41.1,51.8
		c-0.6,3.4-4.7,5.5-9.2,4.7s-7.8-4.2-7.2-7.6c0.5-3.4,4.7-5.5,9.2-4.7S41.6,48.4,41.1,51.8z M39.3,17.3c-5.1,1.5-9.7,0.7-10.2-1.8
		s3.1-5.7,8.2-7.1c5.1-1.5,9.7-0.7,10.2,1.8C48.1,12.6,44.4,15.8,39.3,17.3z M57.5,39.6c-6.1,0-11-3.4-11-7.6s4.9-7.6,11-7.6
		c6,0,11,3.4,11,7.6C68.4,36.2,63.5,39.6,57.5,39.6z M67.1,9.9c0.6-2.5,5.1-3.3,10.2-1.8s8.8,4.7,8.2,7.1c-0.6,2.5-5.1,3.3-10.2,1.8
		C70.2,15.6,66.6,12.4,67.1,9.9z M83.3,56.5c-4.5,0.8-8.7-1.3-9.2-4.7s2.7-6.8,7.2-7.6s8.7,1.3,9.2,4.7
		C91.1,52.3,87.9,55.7,83.3,56.5z M106.8,42.5c-1.6,1.2-4.9-0.7-7.3-4.2c-2.4-3.6-3-7.4-1.4-8.7c1.6-1.2,4.9,0.7,7.3,4.2
		S108.5,41.3,106.8,42.5z"/>
	<path class="st2" d="M40.8,68.7c-4.2,11.8-5.1,22.7-3.2,34.4c4.2,25.8,40.5,27.7,44.1-2.6C83,89.4,82,79.2,78.5,68.6
		C68.7,71.2,49.3,71.6,40.8,68.7z"/>
</g>
</svg>
